<?xml version="1.0" encoding="UTF-8"?>
<svg id="Capa_2" data-name="Capa 2" xmlns="http://www.w3.org/2000/svg" viewBox="0 0 679.12 266.61">
  <defs>
    <style>
      .cls-1 {
        fill: #f1f0f1;
        stroke-width: 0px;
      }
    </style>
  </defs>
  <g id="Capa_1-2" data-name="Capa 1">
    <g>
      <g>
        <path class="cls-1" d="m217.61,43.14l-.05-17.8,10.09-.03c3.93,0,6.5-2.61,6.48-6.93l-.05-18.32,20.87-.05.06,25.06,24.8-.06.05,17.98-24.8.06.11,41.83c.02,7.78,4.14,12.44,12.35,12.42l11.97-.03.05,18.67-16.59.04c-18.99.05-29.96-10.81-30.01-30.17l-.11-42.7-15.23.04Z"/>
        <path class="cls-1" d="m338.31,22.6c28.91-.07,44.7,21.49,44.76,47.08l.02,7.09-68.42.17c.72,13.83,10.32,23.14,24.52,23.1,10.78-.03,19.14-5.06,22.37-12.67l20.7-.05c-4.57,18.68-20.62,30.65-43.71,30.71-13.17.03-24.13-4.43-32.71-13.23-8.4-8.97-12.71-20.19-12.74-33.85-.07-28.35,19.04-48.28,45.21-48.34Zm23.53,38.32c-1.23-12.27-10.49-20.37-23.48-20.34-12.32.03-22.05,8.87-23.38,20.46l46.87-.12Z"/>
        <path class="cls-1" d="m468.48,32.13c8.23,6.55,13.21,15.18,14.95,25.89l-22.75.06c-2.76-9.16-11.33-15.36-21.59-15.33-14.88.04-24.6,11.64-24.56,27.37.04,15.9,10.33,27.29,24.87,27.25,10.26-.03,18.63-5.93,21.17-14.75l22.75-.06c-1.68,10.55-6.62,19.03-14.82,25.45-8.02,6.42-17.93,9.73-29.39,9.76-28.05.07-47.09-21.14-47.16-47.59-.07-26.79,18.87-47.76,46.92-47.83,11.46-.03,21.39,3.23,29.62,9.78Z"/>
        <path class="cls-1" d="m492.97,115.38l-.23-90.92,21.21-.05.03,11.06h1.2c4.09-7.44,13.14-13.35,25.28-13.38,9.92-.03,17.8,3.07,23.63,9.45,6,6.21,8.93,14.32,8.95,24.18l.15,59.46-22.24.06-.14-53.58c-.03-11.06-7.06-18.48-17.32-18.45-10.78.03-18.45,8.52-18.42,20.1l.13,52.03-22.24.06Z"/>
        <path class="cls-1" d="m631.1,21.86c27.71-.41,48.46,21.14,48.01,47.59.07,26.62-19.89,47.76-47.77,47.83-14.03.04-25.5-4.43-34.59-13.4-8.92-9.14-13.39-20.54-13.43-34.19-.07-26.96,19.38-47.76,47.77-47.83Zm-18.13,67.46c4.8,5,10.79,7.58,18.15,7.56,7.36-.02,13.51-2.63,18.28-7.65,4.78-5.2,7.15-11.77,7.13-19.73-.02-7.95-2.43-14.51-7.23-19.52-4.8-5.17-10.8-7.75-18.15-7.73s-13.51,2.63-18.28,7.82c-4.6,5.02-6.98,11.6-6.96,19.55.02,7.95,2.43,14.51,7.06,19.69Z"/>
      </g>
      <g>
        <path class="cls-1" d="m238.53,199.97c.7,7.61,7.04,11.91,17.14,11.89,10.09-.03,16.07-4.54,16.05-10.93-.05-19.36-51.66-.91-51.76-38.94-.02-7.95,3.22-14.53,9.53-19.9,6.31-5.37,15.03-7.99,25.81-8.02,20.01-.05,34.07,10.29,35.48,28.09l-19.67.05c-.87-6.91-6.36-10.88-15.94-10.85-8.89.02-14.87,3.84-14.86,9.89.04,17.29,52.85-1.17,52.95,38.41.04,17.46-14.12,29.77-37.9,29.83-23.78.06-36.46-10.97-37.36-29.46l20.53-.05Z"/>
        <path class="cls-1" d="m307.46,136.18l22.24-.06.14,53.76c.03,11.06,7.23,18.65,17.49,18.62,10.78-.03,18.45-8.69,18.42-20.27l-.13-52.2,22.24-.06.23,90.92-21.21.05-.03-11.06h-1.37c-3.91,7.45-13.31,13.35-25.11,13.38-9.92.03-17.8-3.07-23.8-9.45-6-6.38-8.93-14.32-8.95-24.18l-.15-59.46Z"/>
        <path class="cls-1" d="m404.94,266.61l-.33-130.68,21.89-.06.03,11.58h1.2c2.55-3.98,10.4-13.86,26.99-13.9,12.66-.03,22.93,4.27,30.65,13.06,7.89,8.62,11.85,20.02,11.89,34.2.04,14.17-3.87,25.76-11.54,34.77-7.67,8.83-17.75,13.35-30.07,13.39-15.74.04-24.65-8.75-27.4-13.93h-1.2s.13,51.51.13,51.51l-22.24.06Zm45.69-58.02c14.37-.04,24.09-11.3,24.05-27.37-.04-16.59-9.82-27.28-24.36-27.25-14.37.04-23.92,11.47-23.88,27.37.04,16.59,9.99,27.29,24.19,27.25Z"/>
        <path class="cls-1" d="m549.63,133.32c28.91-.07,44.7,21.49,44.76,47.08l.02,7.09-68.42.17c.72,13.83,10.32,23.14,24.52,23.1,10.78-.03,19.14-5.06,22.37-12.67l20.7-.05c-4.57,18.68-20.62,30.65-43.71,30.71-13.17.03-24.13-4.43-32.7-13.23-8.4-8.97-12.71-20.19-12.74-33.85-.07-28.35,19.04-48.28,45.2-48.34Zm23.53,38.32c-1.23-12.27-10.49-20.37-23.49-20.34-12.31.03-22.04,8.87-23.38,20.46l46.87-.12Z"/>
        <path class="cls-1" d="m607.33,226.35l-.23-90.92,21.04-.05.04,14.87h1.37c3.4-8.14,11.93-15.25,23.57-15.28l8.21-.02.05,21.43-9.24.02c-14.2.04-22.72,10.43-22.68,26.85l.11,43.04-22.24.06Z"/>
      </g>
      <path class="cls-1" d="m108.77,27.6c0-2.44-1.97-4.41-4.38-4.4l-68.54.17-31.5.08C1.94,23.46,0,25.44,0,27.87l.08,31.83.18,69.27c0,2.44,1.97,4.41,4.38,4.4l27.13-.07c2.41,0,4.36-1.99,4.35-4.42l-.16-64.86c0-2.44,1.94-4.42,4.35-4.42l64.18-.16c2.41,0,4.36-1.99,4.35-4.42l-.07-27.42Z"/>
      <path class="cls-1" d="m36.39,225.6c0,2.44,1.97,4.41,4.38,4.4l68.54-.17,31.5-.08c2.41,0,4.36-1.99,4.35-4.42l-.08-31.83-.18-69.27c0-2.44-1.97-4.41-4.38-4.4l-27.13.07c-2.41,0-4.36,1.99-4.35,4.42l.16,64.86c0,2.44-1.94,4.42-4.35,4.42l-64.18.16c-2.41,0-4.36,1.99-4.35,4.42l.07,27.42Z"/>
    </g>
  </g>
</svg>