<?xml version="1.0" encoding="UTF-8"?>
<svg id="Capa_2" data-name="Capa 2" xmlns="http://www.w3.org/2000/svg" viewBox="0 0 179.01 253.04">
  <defs>
    <style>
      .cls-1 {
        fill: #7e35e4;
        stroke-width: 0px;
      }
    </style>
  </defs>
  <g id="Capa_1-2" data-name="Capa 1">
    <g>
      <path class="cls-1" d="m134.6,5.4c0-2.98-2.42-5.4-5.4-5.4H5.4C2.42,0,0,2.42,0,5.4v123.8c0,2.98,2.42,5.4,5.4,5.4h33.58c2.98,0,5.4-2.42,5.4-5.4V49.78c0-2.98,2.42-5.4,5.4-5.4h79.42c2.98,0,5.4-2.42,5.4-5.4V5.4Z"/>
      <path class="cls-1" d="m44.41,247.64c0,2.98,2.42,5.4,5.4,5.4h123.8c2.98,0,5.4-2.42,5.4-5.4v-123.8c0-2.98-2.42-5.4-5.4-5.4h-33.58c-2.98,0-5.4,2.42-5.4,5.4v79.42c0,2.98-2.42,5.4-5.4,5.4H49.81c-2.98,0-5.4,2.42-5.4,5.4v33.58Z"/>
    </g>
  </g>
</svg>